<?xml version="1.0" encoding="UTF-8"?>
<!DOCTYPE svg PUBLIC "-//W3C//DTD SVG 1.1//EN" "http://www.w3.org/Graphics/SVG/1.1/DTD/svg11.dtd">
<svg xmlns="http://www.w3.org/2000/svg" version="1.1" width="256px" height="256px" style="shape-rendering:geometricPrecision; text-rendering:geometricPrecision; image-rendering:optimizeQuality; fill-rule:evenodd; clip-rule:evenodd" xmlns:xlink="http://www.w3.org/1999/xlink">
<g><path style="opacity:0.957" fill="#fefefe" d="M 119.5,-0.5 C 124.167,-0.5 128.833,-0.5 133.5,-0.5C 142.425,2.64421 147.592,8.97754 149,18.5C 149.667,42.8333 149.667,67.1667 149,91.5C 146.253,103.411 138.753,109.744 126.5,110.5C 112.869,109.368 105.369,102.035 104,88.5C 103.059,63.7973 103.393,39.1307 105,14.5C 107.996,7.67183 112.829,2.67183 119.5,-0.5 Z"/></g>
<g><path style="opacity:0.971" fill="#fefefe" d="M 143.5,255.5 C 132.5,255.5 121.5,255.5 110.5,255.5C 49.3889,243.555 13.2222,206.888 2,145.5C -2.42131,102.408 11.0787,66.2415 42.5,37C 55.8991,30.8055 66.3991,33.9722 74,46.5C 76.3972,53.7974 75.7306,60.7974 72,67.5C 47.489,91.0366 39.1557,119.37 47,152.5C 60.1268,190.415 86.7935,210.748 127,213.5C 177.5,208.333 205.333,180.5 210.5,130C 209.511,105.195 200.011,84.3618 182,67.5C 175.53,52.9051 179.363,42.0718 193.5,35C 201.119,33.4508 208.119,34.7841 214.5,39C 252.309,79.0338 262.142,125.2 244,177.5C 224.179,221.157 190.679,247.157 143.5,255.5 Z"/></g>
</svg>
