<?xml version="1.0" encoding="UTF-8"?>
<!DOCTYPE svg PUBLIC "-//W3C//DTD SVG 1.1//EN" "http://www.w3.org/Graphics/SVG/1.1/DTD/svg11.dtd">
<svg xmlns="http://www.w3.org/2000/svg" version="1.1" width="256px" height="254px" style="shape-rendering:geometricPrecision; text-rendering:geometricPrecision; image-rendering:optimizeQuality; fill-rule:evenodd; clip-rule:evenodd" xmlns:xlink="http://www.w3.org/1999/xlink">
<g><path style="opacity:0.922" fill="#fefefe" d="M 121.5,-0.5 C 125.167,-0.5 128.833,-0.5 132.5,-0.5C 134.807,0.977392 136.64,2.97739 138,5.5C 138.188,16.5463 138.688,27.5463 139.5,38.5C 137.902,50.8057 131.235,54.639 119.5,50C 117.951,48.786 116.785,47.286 116,45.5C 115.333,32.1667 115.333,18.8333 116,5.5C 117.36,2.97739 119.193,0.977392 121.5,-0.5 Z"/></g>
<g><path style="opacity:0.892" fill="#fefefe" d="M 33.5,30.5 C 35.4817,30.9954 37.4817,31.4954 39.5,32C 46.1667,38.6667 52.8333,45.3333 59.5,52C 63.297,52.5899 66.9637,52.0899 70.5,50.5C 70.9858,53.6888 69.6524,56.1888 66.5,58C 66.5197,59.715 67.1864,61.5484 68.5,63.5C 66.5,70.1667 62.1667,74.5 55.5,76.5C 53.8849,75.846 52.2182,75.346 50.5,75C 41.4703,65.6361 32.137,56.6361 22.5,48C 22.8333,47.6667 23.1667,47.3333 23.5,47C 21.3467,44.3834 21.18,41.55 23,38.5C 25.8849,34.7509 29.3849,32.0842 33.5,30.5 Z"/></g>
<g><path style="opacity:0.9" fill="#fefefe" d="M 216.5,30.5 C 219.212,30.7375 221.712,30.7375 224,30.5C 227.204,33.3688 230.037,36.5354 232.5,40C 232.793,42.7324 232.293,45.5657 231,48.5C 222.136,57.0298 213.636,65.8631 205.5,75C 202.273,76.4571 199.107,76.9571 196,76.5C 192.796,73.6312 189.963,70.4646 187.5,67C 187.229,63.8792 187.895,60.7126 189.5,57.5C 188.524,55.8767 189.024,54.5433 191,53.5C 191.973,51.6079 192.64,49.6079 193,47.5C 193.202,49.2556 193.702,50.9223 194.5,52.5C 194.833,52.3333 195.167,52.1667 195.5,52C 202.18,44.4267 209.18,37.26 216.5,30.5 Z"/></g>
<g><path style="opacity:0.007" fill="#fefefe" d="M 188.5,38.5 C 190.928,40.6192 192.095,43.2859 192,46.5C 189.834,44.8787 187.334,44.0454 184.5,44C 185.665,42.0083 186.998,40.175 188.5,38.5 Z"/></g>
<g><path style="opacity:0.962" fill="#fefefe" d="M 232.5,253.5 C 162.833,253.5 93.1667,253.5 23.5,253.5C 23.5,240.167 23.5,226.833 23.5,213.5C 31.84,213.666 40.1733,213.5 48.5,213C 47.0922,184.216 47.2589,155.383 49,126.5C 56.1035,95.396 74.9369,75.2293 105.5,66C 150.365,56.522 182.865,72.022 203,112.5C 204.335,117.183 205.669,121.85 207,126.5C 208.741,155.383 208.908,184.216 207.5,213C 215.827,213.5 224.16,213.666 232.5,213.5C 232.5,226.833 232.5,240.167 232.5,253.5 Z M 87.5,108.5 C 88.0778,109.547 88.7445,109.38 89.5,108C 89.2716,107.601 88.9382,107.435 88.5,107.5C 88.8588,105.629 89.8588,104.129 91.5,103C 94.5,101.167 97.5,99.3333 100.5,97.5C 100.833,97.8333 101.167,98.1667 101.5,98.5C 98.5169,103.62 96.0169,108.954 94,114.5C 86.2939,138.552 83.1273,163.218 84.5,188.5C 79.8215,188.666 75.1548,188.499 70.5,188C 71.7482,177.893 71.7482,167.726 70.5,157.5C 70.3919,146.087 72.2252,135.087 76,124.5C 78.6297,118.217 82.4631,112.883 87.5,108.5 Z"/></g>
<g><path style="opacity:0.004" fill="#fefefe" d="M 229.5,84.5 C 229.855,87.3223 229.855,90.1556 229.5,93C 231.312,94.6269 231.479,96.1269 230,97.5C 224.207,93.3185 224.04,88.9852 229.5,84.5 Z"/></g>
<g><path style="opacity:0.012" fill="#fefefe" d="M 245.5,142.5 C 247.26,145.701 248.094,149.367 248,153.5C 248.652,155.723 250.152,156.89 252.5,157C 245.819,158.444 242.152,155.777 241.5,149C 242.219,146.383 243.553,144.216 245.5,142.5 Z"/></g>
<g><path style="opacity:0.012" fill="#fefefe" d="M -0.5,252.5 C 0.166667,252.5 0.5,252.833 0.5,253.5C 0.166667,253.167 -0.166667,252.833 -0.5,252.5 Z"/></g>
<g><path style="opacity:0.012" fill="#fefefe" d="M 255.5,252.5 C 255.5,252.833 255.5,253.167 255.5,253.5C 254.83,253.019 254.83,252.685 255.5,252.5 Z"/></g>
</svg>
