<?xml version="1.0" encoding="utf-8"?><svg version="1.1" id="Layer_1" xmlns="http://www.w3.org/2000/svg" xmlns:xlink="http://www.w3.org/1999/xlink" x="0px" y="0px" width="122.88px" height="117.824px" viewBox="0 0 122.88 117.824" enable-background="new 0 0 122.88 117.824" xml:space="preserve"><g><path fill-rule="evenodd" clip-rule="evenodd" fill="#fefefe" d="M122.774,16.459L122.774,16.459c0,5.393-4.412,9.805-9.805,9.805H92.202 c1.457-2.919,2.278-6.212,2.278-9.697c0-3.571-0.861-6.941-2.387-9.913h20.876C118.362,6.654,122.774,11.066,122.774,16.459 L122.774,16.459z M89.306,101.257c0,9.15-7.418,16.567-16.568,16.567s-16.567-7.417-16.567-16.567 c0-9.149,7.417-16.567,16.567-16.567S89.306,92.107,89.306,101.257L89.306,101.257z M122.869,101.148L122.869,101.148 c0,5.393-4.413,9.805-9.806,9.805H92.202c1.457-2.919,2.278-6.212,2.278-9.696c0-3.571-0.861-6.941-2.387-9.913h20.97 C118.457,91.344,122.869,95.756,122.869,101.148L122.869,101.148z M53.272,110.953H9.816c-5.393,0-9.805-4.412-9.805-9.805l0,0 c0-5.393,4.412-9.805,9.805-9.805h43.565c-1.525,2.972-2.387,6.342-2.387,9.913C50.994,104.741,51.815,108.034,53.272,110.953 L53.272,110.953z M28.326,58.717c0,9.149,7.418,16.567,16.568,16.567c9.149,0,16.567-7.418,16.567-16.567 c0-9.15-7.418-16.568-16.567-16.568C35.744,42.148,28.326,49.566,28.326,58.717L28.326,58.717z M0,58.608L0,58.608 c0,5.393,4.414,9.805,9.805,9.805h15.675c-1.457-2.92-2.278-6.169-2.278-9.696c0-3.528,0.861-6.941,2.387-9.914H9.805 C4.412,48.803,0,53.215,0,58.608L0,58.608z M64.409,68.413h48.666c5.392,0,9.805-4.412,9.805-9.805l0,0 c0-5.394-4.412-9.806-9.805-9.806H64.301c1.525,2.973,2.387,6.386,2.387,9.914C66.688,62.244,65.866,65.493,64.409,68.413 L64.409,68.413z M89.306,16.567c0,9.15-7.418,16.567-16.568,16.567S56.17,25.718,56.17,16.567C56.17,7.417,63.587,0,72.737,0 S89.306,7.417,89.306,16.567L89.306,16.567z M53.272,26.264H9.853c-5.393,0-9.805-4.413-9.805-9.805l0,0 c0-5.393,4.412-9.805,9.805-9.805h43.528c-1.525,2.972-2.387,6.342-2.387,9.913C50.994,20.052,51.815,23.345,53.272,26.264 L53.272,26.264z"/></g></svg>