<?xml version="1.0" encoding="UTF-8"?>
<!DOCTYPE svg PUBLIC "-//W3C//DTD SVG 1.1//EN" "http://www.w3.org/Graphics/SVG/1.1/DTD/svg11.dtd">
<svg xmlns="http://www.w3.org/2000/svg" version="1.1" width="256px" height="256px" style="shape-rendering:geometricPrecision; text-rendering:geometricPrecision; image-rendering:optimizeQuality; fill-rule:evenodd; clip-rule:evenodd" xmlns:xlink="http://www.w3.org/1999/xlink">
<g><path style="opacity:0.978" fill="#fefefe" d="M 102.5,-0.5 C 119.5,-0.5 136.5,-0.5 153.5,-0.5C 159.714,3.75141 162.38,9.75141 161.5,17.5C 184.502,17.3334 207.502,17.5 230.5,18C 234,18.8333 236.167,21 237,24.5C 237.667,33.5 237.667,42.5 237,51.5C 236.167,52.3333 235.333,53.1667 234.5,54C 163.167,54.6667 91.8333,54.6667 20.5,54C 19.6667,53.1667 18.8333,52.3333 18,51.5C 17.3333,42.5 17.3333,33.5 18,24.5C 18.8333,21 21,18.8333 24.5,18C 47.831,17.5 71.1643,17.3334 94.5,17.5C 93.5206,9.73725 96.1873,3.73725 102.5,-0.5 Z"/></g>
<g><path style="opacity:0.981" fill="#fefefe" d="M 206.5,255.5 C 154.167,255.5 101.833,255.5 49.5,255.5C 44.9708,252.454 42.4708,248.121 42,242.5C 36.5371,189.875 31.8705,137.208 28,84.5C 29.4864,80.5021 32.3197,78.0021 36.5,77C 97.8333,76.3333 159.167,76.3333 220.5,77C 224.667,78.5 227.5,81.3333 229,85.5C 224.424,138.837 219.424,192.17 214,245.5C 212.787,249.869 210.287,253.203 206.5,255.5 Z M 76.5,119.5 C 82.7313,118.361 86.898,120.695 89,126.5C 90.4447,151.672 91.9447,176.839 93.5,202C 93.9952,208.839 90.8285,212.673 84,213.5C 79.9416,212.978 76.9416,210.978 75,207.5C 73.0008,179.849 71.6674,152.183 71,124.5C 72.4055,122.256 74.2389,120.59 76.5,119.5 Z M 123.5,119.5 C 128.946,118.339 133.113,120.006 136,124.5C 136.667,152.167 136.667,179.833 136,207.5C 132.858,212.992 128.358,214.492 122.5,212C 120.19,210.363 118.69,208.196 118,205.5C 117.333,179.167 117.333,152.833 118,126.5C 118.938,123.402 120.772,121.069 123.5,119.5 Z M 172.5,119.5 C 180.199,118.006 184.866,121.006 186.5,128.5C 184.738,153.806 183.238,179.139 182,204.5C 179.945,212.299 175.112,214.799 167.5,212C 163.967,208.501 162.634,204.168 163.5,199C 164.65,174.142 166.15,149.308 168,124.5C 169.366,122.638 170.866,120.972 172.5,119.5 Z"/></g>
</svg>
