<svg xmlns="http://www.w3.org/2000/svg" shape-rendering="geometricPrecision" text-rendering="geometricPrecision" image-rendering="optimizeQuality" fill-rule="evenodd" clip-rule="evenodd" viewBox="0 0 512 501.59"><path fill="#fefefe" d="M15.47 366.69h481.06c8.51 0 15.47 6.96 15.47 15.47v103.96c0 8.51-6.96 15.47-15.47 15.47H15.47C6.96 501.59 0 494.63 0 486.12V382.16c0-8.51 6.96-15.47 15.47-15.47zM159.6 158.41h50.98V15.72c0-4.75 2.28-8.92 5.95-11.8C219.61 1.51 223.74 0 228.17 0h55.69c4.43 0 8.55 1.51 11.61 3.93 3.67 2.88 5.97 7.07 5.97 11.79v142.69h50.96c4.89 0 8.85 3.96 8.85 8.85 0 2.15-.77 4.13-2.05 5.66l-97.02 136.29c-2.83 3.97-8.34 4.9-12.31 2.07a8.694 8.694 0 0 1-2.13-2.15l-95.4-136.83c-2.79-4.01-1.79-9.52 2.21-12.3a8.823 8.823 0 0 1 5.05-1.59z"/></svg>