<svg xmlns="http://www.w3.org/2000/svg" shape-rendering="geometricPrecision" text-rendering="geometricPrecision" image-rendering="optimizeQuality" fill-rule="evenodd" clip-rule="evenodd" viewBox="0 0 301 511.26"><path fill-rule="nonzero" fill="#fefefe" d="M102.05 362.83v-4.57c.35-30.36 3.33-54.41 9.17-72.28 5.73-17.86 13.97-32.4 24.73-43.4 10.77-11.11 23.72-21.19 38.84-30.36 9.73-6.18 18.55-13.05 26.34-20.72 7.78-7.57 13.96-16.39 18.55-26.35 4.58-9.85 6.87-20.84 6.87-32.98 0-14.43-3.44-26.92-10.31-37.57-6.76-10.54-15.92-18.67-27.15-24.5-11.34-5.73-23.93-8.59-37.79-8.59-12.48 0-24.39 2.51-35.84 7.78-11.34 5.16-20.85 13.28-28.3 24.28-7.44 10.99-11.79 25.09-12.94 42.27H0c1.15-29.22 8.59-53.95 22.22-74.22 13.75-20.27 31.85-35.63 54.29-46.04C99.08 5.16 124.05 0 151.3 0c30 0 56.12 5.49 78.57 16.72 22.45 11.11 39.97 26.69 52.46 46.61C294.69 83.26 301 106.4 301 132.98c0 18.2-2.86 34.58-8.59 49.13-5.73 14.54-13.75 27.6-24.28 38.93-10.55 11.46-23.03 21.54-37.68 30.24-13.86 8.71-25.09 17.64-33.56 26.92-8.59 9.27-14.78 20.27-18.67 32.87-3.9 12.71-6.08 28.4-6.41 47.19v4.57h-69.76zm36.88 148.43c-13.39-.1-24.85-4.8-34.47-14.31-9.62-9.5-14.32-21.07-14.32-34.59 0-13.28 4.7-24.73 14.32-34.24 9.62-9.51 21.08-14.32 34.47-14.32 13.17 0 24.62 4.81 34.25 14.32 9.73 9.51 14.54 20.96 14.54 34.24 0 8.93-2.28 17.18-6.75 24.52-4.47 7.44-10.32 13.4-17.64 17.75-7.33 4.35-15.47 6.53-24.4 6.63z"/></svg>