<svg xmlns="http://www.w3.org/2000/svg" shape-rendering="geometricPrecision" text-rendering="geometricPrecision" image-rendering="optimizeQuality" fill-rule="evenodd" clip-rule="evenodd" viewBox="0 0 512 501.56"><path fill="#fefefe" d="M15.47 366.66h481.06c8.52 0 15.47 6.95 15.47 15.47v103.95c0 8.52-6.95 15.48-15.47 15.48H15.47C6.96 501.56 0 494.6 0 486.08V382.13c0-8.52 6.96-15.47 15.47-15.47zM210.58 154.5H159.6a8.986 8.986 0 0 1-5.05-1.6c-4.01-2.78-5-8.29-2.21-12.3L247.73 3.78c.58-.81 1.29-1.54 2.14-2.14 3.97-2.83 9.48-1.9 12.31 2.07l97.02 136.27a8.829 8.829 0 0 1 2.05 5.67c0 4.88-3.96 8.85-8.85 8.85h-50.96v142.69c0 4.71-2.29 8.9-5.97 11.79-3.06 2.42-7.18 3.93-11.61 3.93h-55.7c-4.42 0-8.55-1.5-11.62-3.92-3.68-2.89-5.96-7.06-5.96-11.8V154.5z"/></svg>