<?xml version="1.0" encoding="UTF-8"?>
<!DOCTYPE svg PUBLIC "-//W3C//DTD SVG 1.1//EN" "http://www.w3.org/Graphics/SVG/1.1/DTD/svg11.dtd">
<svg xmlns="http://www.w3.org/2000/svg" version="1.1" width="512px" height="512px" style="shape-rendering:geometricPrecision; text-rendering:geometricPrecision; image-rendering:optimizeQuality; fill-rule:evenodd; clip-rule:evenodd" xmlns:xlink="http://www.w3.org/1999/xlink">
<g><path fill="#fefefe" d="M 511.5,164.5 C 511.5,171.167 511.5,177.833 511.5,184.5C 508.938,192.438 504.271,198.938 497.5,204C 494.141,205.383 490.807,206.716 487.5,208C 474.49,209.037 461.49,209.871 448.5,210.5C 433.175,209.629 417.675,209.296 402,209.5C 401.223,222.341 401.39,235.175 402.5,248C 401.891,263.793 401.058,279.626 400,295.5C 392.817,315.352 378.651,323.185 357.5,319C 345.131,315.633 336.965,307.8 333,295.5C 332.5,267.169 332.333,238.835 332.5,210.5C 307.122,210.176 281.789,210.509 256.5,211.5C 230.576,207.706 219.743,192.706 224,166.5C 228.806,151.697 238.972,143.531 254.5,142C 265.213,141.811 275.88,141.311 286.5,140.5C 301.825,141.371 317.325,141.704 333,141.5C 333.777,128.659 333.61,115.825 332.5,103C 333.109,87.2068 333.942,71.3735 335,55.5C 342.183,35.648 356.349,27.8146 377.5,32C 389.869,35.367 398.035,43.2003 402,55.5C 402.5,83.8314 402.667,112.165 402.5,140.5C 427.878,140.824 453.211,140.491 478.5,139.5C 495.012,140.691 506.012,149.024 511.5,164.5 Z"/></g>
<g><path fill="#fefefe" d="M -0.5,346.5 C -0.5,339.833 -0.5,333.167 -0.5,326.5C 3.57509,315.257 11.2418,307.424 22.5,303C 51.4728,301.577 80.4728,301.077 109.5,301.5C 109.333,275.831 109.5,250.165 110,224.5C 110.527,209.331 117.693,198.831 131.5,193C 157.977,186.88 173.977,196.88 179.5,223C 179.254,228.745 179.088,234.578 179,240.5C 178.667,239.833 178.333,239.167 178,238.5C 177.5,259.497 177.333,280.497 177.5,301.5C 205.883,301.898 232.55,301.232 257.5,299.5C 282.578,305.54 292.078,321.873 286,348.5C 281.332,357.838 274.165,364.338 264.5,368C 235.527,369.423 206.527,369.923 177.5,369.5C 177.667,395.169 177.5,420.835 177,446.5C 176.473,461.669 169.307,472.169 155.5,478C 129.023,484.12 113.023,474.12 107.5,448C 107.746,442.255 107.912,436.422 108,430.5C 108.333,431.167 108.667,431.833 109,432.5C 109.5,411.503 109.667,390.503 109.5,369.5C 81.1169,369.102 54.4503,369.768 29.5,371.5C 28.3044,371.154 28.3044,370.654 29.5,370C 14.4079,368.625 4.40791,360.792 -0.5,346.5 Z"/></g>
</svg>
