<svg id="Layer_1" data-name="Layer 1" xmlns="http://www.w3.org/2000/svg" viewBox="0 0 122.88 113.94"><defs><style>.cls-1{fill-rule:evenodd;}</style></defs><title>messenger-chat-bubble</title><path class="cls-1" fill="#fefefe" d="M3.77,0H119.11a3.79,3.79,0,0,1,3.77,3.77V80.94a3.79,3.79,0,0,1-3.77,3.78H61.44l-29.1,21.62c-9.61,9.13-16.08,11.45-15.15-1V84.72H3.77A3.79,3.79,0,0,1,0,80.94V3.77A3.79,3.79,0,0,1,3.77,0ZM62.92,34.34a7.12,7.12,0,1,1-7.12,7.11,7.11,7.11,0,0,1,7.12-7.11Zm27.19,0A7.12,7.12,0,1,1,83,41.45a7.11,7.11,0,0,1,7.11-7.11Zm-54.39,0a7.12,7.12,0,1,1-7.11,7.11,7.11,7.11,0,0,1,7.11-7.11Z"/></svg>