<?xml version="1.0" encoding="UTF-8"?>
<!DOCTYPE svg PUBLIC "-//W3C//DTD SVG 1.1//EN" "http://www.w3.org/Graphics/SVG/1.1/DTD/svg11.dtd">
<svg xmlns="http://www.w3.org/2000/svg" version="1.1" width="128px" height="128px" style="shape-rendering:geometricPrecision; text-rendering:geometricPrecision; image-rendering:optimizeQuality; fill-rule:evenodd; clip-rule:evenodd" xmlns:xlink="http://www.w3.org/1999/xlink">
<g><path style="opacity:0.914" fill="#fefffe" d="M 19.5,32.5 C 29.36,30.3496 36.5267,33.6829 41,42.5C 41.6667,55.1667 41.6667,67.8333 41,80.5C 36.5269,89.4822 29.3603,92.6489 19.5,90C 12.034,86.4139 8.36732,80.4139 8.5,72C 9.24299,62.1838 9.74299,52.3505 10,42.5C 12.0223,37.98 15.189,34.6467 19.5,32.5 Z M 23.5,42.5 C 26.3245,42.0807 28.4912,43.0807 30,45.5C 30.6667,55.8333 30.6667,66.1667 30,76.5C 27.4905,81.2549 24.4905,81.5883 21,77.5C 20.3333,66.8333 20.3333,56.1667 21,45.5C 22.045,44.6266 22.8783,43.6266 23.5,42.5 Z"/></g>
<g><path style="opacity:0.945" fill="#fefffe" d="M 50.5,33.5 C 59.8333,33.5 69.1667,33.5 78.5,33.5C 78.5,36.8333 78.5,40.1667 78.5,43.5C 72.8333,43.5 67.1667,43.5 61.5,43.5C 61.5,47.5 61.5,51.5 61.5,55.5C 67.1667,55.5 72.8333,55.5 78.5,55.5C 78.5,58.8333 78.5,62.1667 78.5,65.5C 72.8333,65.5 67.1667,65.5 61.5,65.5C 61.5,73.5 61.5,81.5 61.5,89.5C 57.8333,89.5 54.1667,89.5 50.5,89.5C 50.5,70.8333 50.5,52.1667 50.5,33.5 Z"/></g>
<g><path style="opacity:0.944" fill="#fefffe" d="M 88.5,33.5 C 97.8333,33.5 107.167,33.5 116.5,33.5C 116.5,36.8333 116.5,40.1667 116.5,43.5C 110.833,43.5 105.167,43.5 99.5,43.5C 99.5,47.5 99.5,51.5 99.5,55.5C 105.167,55.5 110.833,55.5 116.5,55.5C 116.5,58.8333 116.5,62.1667 116.5,65.5C 110.833,65.5 105.167,65.5 99.5,65.5C 99.5,73.5 99.5,81.5 99.5,89.5C 95.8333,89.5 92.1667,89.5 88.5,89.5C 88.5,70.8333 88.5,52.1667 88.5,33.5 Z"/></g>
</svg>
