<?xml version="1.0" encoding="UTF-8"?>
<!DOCTYPE svg PUBLIC "-//W3C//DTD SVG 1.1//EN" "http://www.w3.org/Graphics/SVG/1.1/DTD/svg11.dtd">
<svg xmlns="http://www.w3.org/2000/svg" version="1.1" width="128px" height="128px" style="shape-rendering:geometricPrecision; text-rendering:geometricPrecision; image-rendering:optimizeQuality; fill-rule:evenodd; clip-rule:evenodd" xmlns:xlink="http://www.w3.org/1999/xlink">
<g><path style="opacity:0.914" fill="#fefffe" d="M 36.5,32.5 C 46.36,30.3496 53.5267,33.6829 58,42.5C 58.6667,55.1667 58.6667,67.8333 58,80.5C 53.5269,89.4822 46.3603,92.6489 36.5,90C 29.034,86.4139 25.3673,80.4139 25.5,72C 26.243,62.1838 26.743,52.3505 27,42.5C 29.0223,37.98 32.189,34.6467 36.5,32.5 Z M 40.5,42.5 C 43.3245,42.0807 45.4912,43.0807 47,45.5C 47.6667,55.8333 47.6667,66.1667 47,76.5C 44.4905,81.2549 41.4905,81.5883 38,77.5C 37.3333,66.8333 37.3333,56.1667 38,45.5C 39.045,44.6266 39.8783,43.6266 40.5,42.5 Z"/></g>
<g><path style="opacity:0.905" fill="#fefffe" d="M 67.5,33.5 C 70.8984,33.1796 74.2317,33.513 77.5,34.5C 81,42.8333 84.5,51.1667 88,59.5C 88.4998,50.8397 88.6664,42.1731 88.5,33.5C 92.1667,33.5 95.8333,33.5 99.5,33.5C 99.5,52.1667 99.5,70.8333 99.5,89.5C 96.1016,89.8204 92.7683,89.487 89.5,88.5C 85.9393,80.3783 82.106,72.3783 78,64.5C 78.3697,72.7878 78.5364,81.1212 78.5,89.5C 74.8333,89.5 71.1667,89.5 67.5,89.5C 67.5,70.8333 67.5,52.1667 67.5,33.5 Z"/></g>
</svg>
