<?xml version="1.0" encoding="UTF-8"?>
<!DOCTYPE svg PUBLIC "-//W3C//DTD SVG 1.1//EN" "http://www.w3.org/Graphics/SVG/1.1/DTD/svg11.dtd">
<svg xmlns="http://www.w3.org/2000/svg" version="1.1" width="512px" height="512px" style="shape-rendering:geometricPrecision; text-rendering:geometricPrecision; image-rendering:optimizeQuality; fill-rule:evenodd; clip-rule:evenodd" xmlns:xlink="http://www.w3.org/1999/xlink">
<g><path style="opacity:0.992" fill="#fefefe" d="M 229.5,-0.5 C 246.833,-0.5 264.167,-0.5 281.5,-0.5C 295.726,3.90446 303.893,13.5711 306,28.5C 306.167,40.8468 306.667,53.1801 307.5,65.5C 323.522,70.7627 338.689,77.7627 353,86.5C 363.563,75.2676 374.73,64.7676 386.5,55C 398.41,49.7683 409.743,50.7683 420.5,58C 431.333,68.8333 442.167,79.6667 453,90.5C 461.663,103.482 461.663,116.482 453,129.5C 442.833,139.667 432.667,149.833 422.5,160C 430.292,173.752 436.292,188.252 440.5,203.5C 454.488,204.333 468.488,204.833 482.5,205C 497.429,207.107 507.096,215.274 511.5,229.5C 511.5,246.833 511.5,264.167 511.5,281.5C 507.096,295.726 497.429,303.893 482.5,306C 468.171,306.5 453.837,306.667 439.5,306.5C 435.81,321.899 430.143,336.565 422.5,350.5C 432.486,360.986 442.652,371.319 453,381.5C 461.663,394.518 461.663,407.518 453,420.5C 442.167,431.333 431.333,442.167 420.5,453C 407.518,461.663 394.518,461.663 381.5,453C 371.667,443.167 361.833,433.333 352,423.5C 338.184,432.443 323.351,439.277 307.5,444C 306.677,456.758 306.177,469.591 306,482.5C 303.893,497.429 295.726,507.096 281.5,511.5C 264.167,511.5 246.833,511.5 229.5,511.5C 215.274,507.096 207.107,497.429 205,482.5C 204.5,470.838 204.333,459.171 204.5,447.5C 186.66,443.83 169.827,437.496 154,428.5C 144.769,438.401 134.936,447.567 124.5,456C 112.59,461.232 101.257,460.232 90.5,453C 79.6667,442.167 68.8333,431.333 58,420.5C 49.337,407.518 49.337,394.518 58,381.5C 65.5,374 73,366.5 80.5,359C 70.4077,342.981 62.9077,325.814 58,307.5C 48.2438,306.68 38.4105,306.18 28.5,306C 13.5711,303.893 3.90446,295.726 -0.5,281.5C -0.5,264.167 -0.5,246.833 -0.5,229.5C 3.90446,215.274 13.5711,207.107 28.5,205C 38.1838,204.832 47.8505,204.332 57.5,203.5C 62.2176,185.737 69.3843,169.07 79,153.5C 79.6667,152.5 79.6667,151.5 79,150.5C 72,143.5 65,136.5 58,129.5C 49.337,116.482 49.337,103.482 58,90.5C 68.8333,79.6667 79.6667,68.8333 90.5,58C 102.076,50.2709 114.076,49.6042 126.5,56C 135.651,64.3171 144.651,72.8171 153.5,81.5C 169.17,72.5525 185.836,66.0525 203.5,62C 204.322,50.9095 204.822,39.7429 205,28.5C 207.107,13.5711 215.274,3.90446 229.5,-0.5 Z M 241.5,152.5 C 294.234,152.436 329.401,177.102 347,226.5C 357.923,276.093 342.423,314.926 300.5,343C 271.087,358.67 240.754,360.67 209.5,349C 161.556,325.286 141.389,286.786 149,233.5C 162.009,185.983 192.842,158.983 241.5,152.5 Z"/></g>
</svg>
