<?xml version="1.0" encoding="UTF-8"?>
<!DOCTYPE svg PUBLIC "-//W3C//DTD SVG 1.1//EN" "http://www.w3.org/Graphics/SVG/1.1/DTD/svg11.dtd">
<svg xmlns="http://www.w3.org/2000/svg" version="1.1" width="128px" height="128px" style="shape-rendering:geometricPrecision; text-rendering:geometricPrecision; image-rendering:optimizeQuality; fill-rule:evenodd; clip-rule:evenodd" xmlns:xlink="http://www.w3.org/1999/xlink">
<g><path style="opacity:0.435" fill="#fdfdfd" d="M 19.5,24.5 C 27.6563,23.3434 35.9896,23.1768 44.5,24C 43.5079,41.4231 43.1746,58.9231 43.5,76.5C 49.5368,76.1707 55.5368,76.5041 61.5,77.5C 55.8157,83.3501 50.3157,89.3501 45,95.5C 41.2511,99.7557 37.0844,103.422 32.5,106.5C 21.8621,97.8621 12.1954,88.1954 3.5,77.5C 9.12779,76.5046 14.7945,76.1712 20.5,76.5C 20.83,58.992 20.4967,41.6586 19.5,24.5 Z M 24.5,27.5 C 29.5,27.5 34.5,27.5 39.5,27.5C 39.5,44.8333 39.5,62.1667 39.5,79.5C 44.1785,79.3342 48.8452,79.5008 53.5,80C 46.3734,86.9609 39.3734,94.1276 32.5,101.5C 25.0108,94.8437 18.0108,87.6771 11.5,80C 15.8206,79.501 20.1539,79.3343 24.5,79.5C 24.5,62.1667 24.5,44.8333 24.5,27.5 Z"/></g>
<g><path style="opacity:0.872" fill="#fdfdfd" d="M 92.5,23.5 C 94.6547,23.372 96.6547,23.872 98.5,25C 105.635,33.1365 113.135,40.9698 121,48.5C 122.559,50.2166 123.392,52.2166 123.5,54.5C 117.833,54.5 112.167,54.5 106.5,54.5C 106.175,71.7437 106.508,88.9104 107.5,106C 99.1667,106.667 90.8333,106.667 82.5,106C 83.4724,89.0647 83.8057,72.2313 83.5,55.5C 77.5368,54.5041 71.5368,54.1707 65.5,54.5C 65.3505,53.448 65.5172,52.448 66,51.5C 75.0716,42.3254 83.9049,32.992 92.5,23.5 Z"/></g>
</svg>
