<?xml version="1.0" encoding="utf-8"?><svg version="1.1" id="Layer_1" xmlns="http://www.w3.org/2000/svg" xmlns:xlink="http://www.w3.org/1999/xlink" x="0px" y="0px" width="122.88px" height="72.555px" viewBox="0 0 122.88 72.555" enable-background="new 0 0 122.88 72.555" xml:space="preserve"><g><path fill="#fefefe" d="M86.604,5.357H55.846c2.439,1.501,4.689,3.282,6.705,5.297c6.573,6.574,10.654,15.644,10.654,25.623 c0,9.977-4.083,19.045-10.656,25.619c-2.017,2.018-4.269,3.799-6.709,5.301h30.764c8.499,0,16.229-3.48,21.834-9.086 s9.085-13.334,9.085-21.834c0-8.5-3.479-16.23-9.084-21.835S95.104,5.357,86.604,5.357L86.604,5.357z M36.928,5.357h-0.65 c-8.5,0-16.23,3.479-21.835,9.084c-5.605,5.605-9.085,13.335-9.085,21.835c0,0.133,0.001,0.266,0.003,0.398 c0.001,0.131,0.004,0.264,0.008,0.396c0.003,0.131,0.007,0.264,0.012,0.395l0,0c0.005,0.131,0.011,0.264,0.018,0.395l0,0 c0.007,0.131,0.014,0.262,0.022,0.393l0,0c0.008,0.131,0.018,0.262,0.027,0.393l0,0c0.01,0.129,0.021,0.26,0.033,0.389v0.002 c0.035,0.389,0.077,0.777,0.126,1.162l0,0c0.89,6.939,4.107,13.18,8.837,17.91c4.993,4.992,11.671,8.301,19.074,8.963h0.001 c0.129,0.012,0.259,0.023,0.389,0.033h0.001c0.13,0.01,0.261,0.02,0.391,0.027h0.001c0.13,0.01,0.261,0.016,0.393,0.023l0,0 c0.131,0.006,0.263,0.012,0.394,0.018h0.001c0.131,0.006,0.263,0.01,0.395,0.012h0.001c0.132,0.004,0.264,0.006,0.396,0.008h0 c0.132,0.002,0.265,0.004,0.398,0.004h0.65c8.495,0,16.226-3.482,21.833-9.088c5.605-5.605,9.086-13.334,9.086-21.832 c0-8.5-3.479-16.23-9.084-21.835S45.428,5.357,36.928,5.357L36.928,5.357z M36.277,0h0.65h49.676 c9.979,0,19.049,4.081,25.622,10.654c6.574,6.574,10.654,15.644,10.654,25.623c0,9.979-4.081,19.049-10.654,25.621 c-6.574,6.574-15.645,10.656-25.622,10.656H36.928h-0.65c-0.156,0-0.312-0.002-0.467-0.004h0c-0.155-0.002-0.311-0.004-0.465-0.008 l0,0c-0.155-0.006-0.31-0.01-0.464-0.016h0c-0.155-0.006-0.309-0.014-0.462-0.021h0c-0.154-0.008-0.307-0.016-0.46-0.025h-0.001 c-0.153-0.01-0.306-0.021-0.459-0.033h-0.001c-0.152-0.012-0.305-0.023-0.457-0.037h-0.001 c-8.692-0.779-16.528-4.656-22.383-10.512c-5.444-5.443-9.179-12.6-10.301-20.564v-0.002c-0.042-0.299-0.081-0.602-0.116-0.904l0,0 c-0.035-0.303-0.066-0.607-0.094-0.912l0,0c-0.014-0.152-0.026-0.305-0.038-0.457l0,0c-0.012-0.154-0.022-0.307-0.032-0.461l0,0 c-0.01-0.152-0.019-0.307-0.026-0.461l0,0c-0.008-0.154-0.015-0.309-0.021-0.463l0,0c-0.006-0.154-0.011-0.309-0.015-0.465l0,0 c-0.004-0.154-0.007-0.309-0.009-0.465S0,36.434,0,36.277c0-9.979,4.081-19.049,10.654-25.623C17.229,4.081,26.298,0,36.277,0 L36.277,0z"/></g></svg>